HIERARCHY
ROOT Hips
{
	OFFSET 0.00000 0.00000 0.00000
	CHANNELS 6 Xposition Yposition Zposition Zrotation Yrotation Xrotation 
	JOINT LHipJoint
	{
		OFFSET 0 0 0
		CHANNELS 3 Zrotation Yrotation Xrotation
		JOINT LeftUpLeg
		{
			OFFSET 1.34019 -1.87553 0.90315
			CHANNELS 3 Zrotation Yrotation Xrotation
			JOINT LeftLeg
			{
				OFFSET 2.55316 -7.01474 0.00000
				CHANNELS 3 Zrotation Yrotation Xrotation
				JOINT LeftFoot
				{
					OFFSET 2.64657 -7.27139 0.00000
					CHANNELS 3 Zrotation Yrotation Xrotation
					JOINT LeftToeBase
					{
						OFFSET 0.24207 -0.66507 2.14489
						CHANNELS 3 Zrotation Yrotation Xrotation
						End Site
						{
							OFFSET 0.00000 -0.00000 1.12451
						}
					}
				}
			}
		}
	}
	JOINT RHipJoint
	{
		OFFSET 0 0 0
		CHANNELS 3 Zrotation Yrotation Xrotation
		JOINT RightUpLeg
		{
			OFFSET -1.28320 -1.87553 0.90315
			CHANNELS 3 Zrotation Yrotation Xrotation
			JOINT RightLeg
			{
				OFFSET -2.60484 -7.15674 0.00000
				CHANNELS 3 Zrotation Yrotation Xrotation
				JOINT RightFoot
				{
					OFFSET -2.60296 -7.15159 0.00000
					CHANNELS 3 Zrotation Yrotation Xrotation
					JOINT RightToeBase
					{
						OFFSET -0.31082 -0.85398 2.28998
						CHANNELS 3 Zrotation Yrotation Xrotation
						End Site
						{
							OFFSET -0.00000 -0.00000 1.21611
						}
					}
				}
			}
		}
	}
	JOINT LowerBack
	{
		OFFSET 0 0 0
		CHANNELS 3 Zrotation Yrotation Xrotation
		JOINT Spine
		{
			OFFSET -0.00160 2.05581 -0.15156
			CHANNELS 3 Zrotation Yrotation Xrotation
			JOINT Spine1
			{
				OFFSET 0.04594 2.06326 -0.01617
				CHANNELS 3 Zrotation Yrotation Xrotation
				JOINT Neck
				{
					OFFSET 0 0 0
					CHANNELS 3 Zrotation Yrotation Xrotation
					JOINT Neck1
					{
						OFFSET 0.03753 1.73883 0.26751
						CHANNELS 3 Zrotation Yrotation Xrotation
						JOINT Head
						{
							OFFSET -0.09795 1.76129 -0.31794
							CHANNELS 3 Zrotation Yrotation Xrotation
							End Site
							{
								OFFSET -0.03611 1.79987 -0.13846
							}
						}
					}
				}
				JOINT LeftShoulder
				{
					OFFSET 0 0 0
					CHANNELS 3 Zrotation Yrotation Xrotation
					JOINT LeftArm
					{
						OFFSET 3.30667 1.29205 -0.22445
						CHANNELS 3 Zrotation Yrotation Xrotation
						JOINT LeftForeArm
						{
							OFFSET 4.92785 -0.00000 -0.00000
							CHANNELS 3 Zrotation Yrotation Xrotation
							JOINT LeftHand
							{
								OFFSET 3.44052 -0.00000 0.00000
								CHANNELS 3 Zrotation Yrotation Xrotation
								JOINT LeftFingerBase
								{
									OFFSET 0 0 0
									CHANNELS 3 Zrotation Yrotation Xrotation
									JOINT LeftHandIndex1
									{
										OFFSET 0.65433 -0.00000 0.00000
										CHANNELS 3 Zrotation Yrotation Xrotation
										End Site
										{
											OFFSET 0.52753 -0.00000 0.00000
										}
									}
								}
								JOINT LThumb
								{
									OFFSET 0 0 0
									CHANNELS 3 Zrotation Yrotation Xrotation
									End Site
									{
										OFFSET 0.53559 -0.00000 0.53559
									}
								}
							}
						}
					}
				}
				JOINT RightShoulder
				{
					OFFSET 0 0 0
					CHANNELS 3 Zrotation Yrotation Xrotation
					JOINT RightArm
					{
						OFFSET -3.20032 1.49783 -0.27688
						CHANNELS 3 Zrotation Yrotation Xrotation
						JOINT RightForeArm
						{
							OFFSET -5.09181 -0.00000 -0.00000
							CHANNELS 3 Zrotation Yrotation Xrotation
							JOINT RightHand
							{
								OFFSET -3.49865 -0.00000 -0.00000
								CHANNELS 3 Zrotation Yrotation Xrotation
								JOINT RightFingerBase
								{
									OFFSET 0 0 0
									CHANNELS 3 Zrotation Yrotation Xrotation
									JOINT RightHandIndex1
									{
										OFFSET -0.66641 -0.00000 0.00000
										CHANNELS 3 Zrotation Yrotation Xrotation
										End Site
										{
											OFFSET -0.53728 -0.00000 0.00000
										}
									}
								}
								JOINT RThumb
								{
									OFFSET 0 0 0
									CHANNELS 3 Zrotation Yrotation Xrotation
									End Site
									{
										OFFSET -0.54548 -0.00000 0.54548
									}
								}
							}
						}
					}
				}
			}
		}
	}
}
MOTION
Frames: 6
Frame Time: .0083333
1.0756 18.0698 -2.7125 -2.2192 4.3871 -1.7051 0.0000 0.0000 0.0000 -15.6893 -1.9674 0.2461 7.6741 15.8742 51.3800 2.1842 0.6262 27.8050 0.2765 -3.3824 -9.3454 0.0000 0.0000 0.0000 25.5506 6.5060 -14.1227 -2.2179 -9.3058 26.7568 0.5537 -14.1822 -11.2115 -0.0159 -0.8142 2.2376 -1.5151 -1.0347 4.4993 2.9546 -1.3542 -1.8775 4.0281 -0.5855 -4.3620 4.4503 0.8468 -18.7272 -5.3872 1.4119 27.3385 -2.5743 0.3848 12.1931 -0.0000 0.0000 0.0000 -83.4117 14.9357 22.5607 20.9662 -31.7888 -6.0321 -0.0000 0.0000 -7.1996 10.8177 -0.1222 -0.0234 -7.1250 0.0000 -0.0000 -12.3253 29.7381 4.6864 -0.0000 0.0000 0.0000 81.4534 -13.2814 7.5850 -15.8999 25.3848 -3.6030 0.0000 -0.0000 -4.7637 -15.3744 -2.7925 0.7675 7.1250 -0.0000 -0.0000 9.0856 -32.7811 2.7492
1.0669 18.0673 -2.5767 -2.6689 4.3210 -1.8451 0.0000 0.0000 0.0000 -15.0188 -2.0443 -1.2576 8.3498 16.3706 53.8132 2.0173 0.7488 26.6684 0.2488 -3.2099 -8.8635 0.0000 0.0000 0.0000 26.2143 6.2917 -13.4382 -2.1881 -9.2473 26.5720 0.5429 -14.1936 -11.5466 -0.0156 -0.8056 2.2141 -1.0756 -1.0053 4.6096 3.0759 -1.2821 -1.8252 3.9023 -0.5605 -4.3822 4.4389 0.8395 -18.7581 -5.4128 1.4125 27.3526 -2.5825 0.3802 12.2052 -0.0000 0.0000 0.0000 -83.4689 14.7857 22.5209 20.9494 -31.7693 -6.0233 -0.0000 0.0000 -7.1696 10.9049 -0.1577 -0.0304 -7.1250 0.0000 -0.0000 -12.2535 29.7041 4.6681 -0.0000 0.0000 0.0000 81.3776 -13.1648 7.7721 -15.9726 25.4835 -3.6342 0.0000 -0.0000 -4.8659 -15.4106 -2.7983 0.7710 7.1250 -0.0000 -0.0000 9.0571 -32.7882 2.7389
1.0586 18.0656 -2.4429 -3.0879 4.2506 -1.9712 0.0000 0.0000 0.0000 -14.3891 -2.0966 -2.7786 9.0235 16.8228 56.1714 1.7415 0.8895 24.7056 0.2549 -3.2484 -8.9710 0.0000 0.0000 0.0000 26.8278 6.0337 -12.7766 -2.1548 -9.1813 26.3640 0.5250 -14.1351 -11.8493 -0.0146 -0.7814 2.1476 -0.6756 -0.9731 4.7075 3.1936 -1.2084 -1.7737 3.7945 -0.5336 -4.3952 4.4576 0.8375 -18.7577 -5.4675 1.4204 27.3489 -2.6053 0.3786 12.2046 -0.0000 -0.0000 0.0000 -83.5491 14.6247 22.4365 20.9180 -31.7325 -6.0067 -0.0000 0.0000 -7.1388 10.9940 -0.2029 -0.0394 -7.1250 0.0000 -0.0000 -12.1792 29.6604 4.6516 -0.0000 -0.0000 0.0000 81.3021 -13.0282 7.9039 -16.0286 25.5594 -3.6583 0.0000 -0.0000 -4.9310 -15.4415 -2.7858 0.7692 7.1250 -0.0000 -0.0000 9.0310 -32.7763 2.7334
1.0506 18.0653 -2.3108 -3.4863 4.1701 -2.0824 0.0000 0.0000 0.0000 -13.7824 -2.1236 -4.3127 9.6805 17.2262 58.4151 1.4195 1.0662 22.2116 0.2888 -3.4560 -9.5510 0.0000 0.0000 0.0000 27.4060 5.7410 -12.1313 -2.1164 -9.1045 26.1228 0.5018 -14.0211 -12.1201 -0.0136 -0.7518 2.0661 -0.3065 -0.9370 4.7940 3.3115 -1.1311 -1.7175 3.7037 -0.5042 -4.3959 4.4703 0.8323 -18.7513 -5.5242 1.4263 27.3359 -2.6278 0.3752 12.1990 0.0000 -0.0000 0.0000 -83.6522 14.4306 22.3119 20.8629 -31.6680 -5.9778 -0.0000 0.0000 -7.1176 11.1048 -0.2548 -0.0500 -7.1250 0.0000 -0.0000 -12.0872 29.6103 4.6298 0.0000 -0.0000 0.0000 81.2240 -12.8618 8.0075 -16.0759 25.6235 -3.6787 0.0000 -0.0000 -4.9837 -15.4737 -2.8194 0.7801 7.1250 -0.0000 -0.0000 9.0089 -32.8116 2.7188
1.0429 18.0668 -2.1805 -3.8430 4.0917 -2.1698 0.0000 0.0000 0.0000 -13.2297 -2.1516 -5.8579 10.3050 17.5778 60.5031 1.1170 1.3217 19.5831 0.3106 -3.5826 -9.9052 0.0000 0.0000 0.0000 27.9244 5.4121 -11.5135 -2.0733 -9.0170 25.8486 0.4751 -13.8665 -12.3571 -0.0123 -0.7151 1.9652 0.0127 -0.8988 4.8661 3.4226 -1.0539 -1.6728 3.6338 -0.4733 -4.3991 4.4909 0.8288 -18.6893 -5.5903 1.4351 27.2760 -2.6531 0.3733 12.1638 -0.0000 0.0000 0.0000 -83.7825 14.2227 22.1315 20.7767 -31.5667 -5.9326 -0.0000 0.0000 -7.0854 11.1994 -0.3194 -0.0632 -7.1250 0.0000 -0.0000 -12.0065 29.5472 4.6160 -0.0000 0.0000 0.0000 81.1493 -12.6920 8.0688 -16.1134 25.6742 -3.6950 0.0000 -0.0000 -5.0139 -15.5060 -2.8385 0.7871 7.1250 -0.0000 -0.0000 8.9853 -32.8322 2.7070
1.0352 18.0696 -2.0516 -4.1813 4.0024 -2.2469 0.0000 0.0000 0.0000 -12.7000 -2.1626 -7.3855 10.8823 17.8770 62.3988 0.8489 1.6234 16.9363 0.3338 -3.7130 -10.2706 0.0000 0.0000 0.0000 28.4148 5.0692 -10.9002 -2.0258 -8.9196 25.5441 0.4476 -13.6939 -12.5629 -0.0108 -0.6707 1.8431 0.3039 -0.8565 4.9326 3.5316 -0.9730 -1.6293 3.5770 -0.4398 -4.3997 4.4714 0.8136 -18.6463 -5.6204 1.4296 27.2399 -2.6608 0.3654 12.1404 0.0000 0.0000 0.0000 -83.9213 14.0054 21.9400 20.6755 -31.4476 -5.8797 -0.0000 0.0000 -7.0848 11.2894 -0.3930 -0.0784 -7.1250 0.0000 -0.0000 -11.9282 29.4751 4.6057 0.0000 0.0000 0.0000 81.0817 -12.5237 8.1156 -16.1551 25.7305 -3.7131 0.0000 -0.0000 -5.0415 -15.5372 -2.8428 0.7900 7.1250 -0.0000 -0.0000 8.9606 -32.8376 2.6983
